<?xml version="1.0" standalone="no"?><!DOCTYPE svg PUBLIC "-//W3C//DTD SVG 1.1//EN" "http://www.w3.org/Graphics/SVG/1.1/DTD/svg11.dtd"><svg t="1715844801420" class="icon" viewBox="0 0 1024 1024" version="1.1" xmlns="http://www.w3.org/2000/svg" p-id="3079" xmlns:xlink="http://www.w3.org/1999/xlink" width="200" height="200"><path d="M795.401466 1023.997157h-197.508726a36.112307 36.112307 0 0 1-36.624135-36.794744v-316.650904H448.154624v316.650904a36.112307 36.112307 0 0 1-36.624134 36.794744H217.206471a110.327362 110.327362 0 0 1-109.929274-110.327363v-323.077188H86.576599A85.816489 85.816489 0 0 1 0.5895 504.264289a82.404303 82.404303 0 0 1 23.885306-59.201435L395.606953 50.045401a160.145285 160.145285 0 0 1 226.171092-6.426284 12.397611 12.397611 0 0 0 6.369415 6.426284l371.132147 395.017453a86.214578 86.214578 0 0 1-1.592353 121.587577 85.304661 85.304661 0 0 1-60.50944 23.942175h-31.847074v323.077188a110.327362 110.327362 0 0 1-109.929274 110.327363z m-159.235368-73.532619h159.235368a38.842056 38.842056 0 0 0 38.216489-38.387097v-358.279579a36.112307 36.112307 0 0 1 36.624134-36.737874h68.24373a12.056392 12.056392 0 0 0 11.373954-8.018638 12.738829 12.738829 0 0 0-3.184707-14.388053L574.007435 101.228198a85.816489 85.816489 0 0 0-122.668103-3.184707 3.412186 3.412186 0 0 0-3.184708 3.184707L77.022477 494.767037a12.56822 12.56822 0 0 0 0 17.57276 11.373955 11.373955 0 0 0 9.554122 3.241577h58.917086a36.112307 36.112307 0 0 1 36.624135 36.737874v359.871932a38.842056 38.842056 0 0 0 38.216488 38.387098h157.699885v-279.913029A73.1914 73.1914 0 0 1 451.282462 597.13263h113.113981a73.1914 73.1914 0 0 1 73.248269 73.532619z m0 0" fill="#ffffff" p-id="3080"></path></svg>