<?xml version="1.0" standalone="no"?><!DOCTYPE svg PUBLIC "-//W3C//DTD SVG 1.1//EN" "http://www.w3.org/Graphics/SVG/1.1/DTD/svg11.dtd"><svg t="1715835426853" class="icon" viewBox="0 0 1024 1024" version="1.1" xmlns="http://www.w3.org/2000/svg" p-id="8772" xmlns:xlink="http://www.w3.org/1999/xlink" width="200" height="200"><path d="M107.3 737.5c-5.1 0-10.3-1.2-15.1-3.7-16.1-8.3-22.4-28.2-14.1-44.3l268.1-517.3c5.5-10.6 16.4-17.4 28.4-17.7 11.7-0.7 23.2 6 29.2 16.3L569 454.6l97-129.1c6.5-8.7 16.9-13.5 27.7-13.1 10.8 0.5 20.7 6.2 26.5 15.4l224.2 359.3c9.6 15.4 4.9 35.7-10.5 45.3-15.4 9.6-35.7 4.9-45.3-10.5L689.9 403.4l-98 130.4c-6.6 8.8-17 14-28.2 13.1-11-0.6-21-6.8-26.5-16.3l-160-275-240.6 464.2c-5.9 11.3-17.4 17.7-29.3 17.7z" fill="#0e932e" p-id="8773" data-spm-anchor-id="a313x.search_index.0.i1.217f3a81TnZPsM" class="selected"></path><path d="M887.6 457.8c-16.8 0-31.2-12.8-32.7-29.9-13.4-147.2-122.2-258.3-253.2-258.3-22 0-43.9 3.2-65 9.5-17.4 5.2-35.7-4.7-40.9-22.1-5.2-17.4 4.7-35.7 22.1-40.9 27.2-8.1 55.4-12.2 83.8-12.2 165.2 0 302.2 136.7 318.7 318.1 1.6 18.1-11.7 34.1-29.8 35.7-1 0-2 0.1-3 0.1z" fill="#0e932e" p-id="8774" data-spm-anchor-id="a313x.search_index.0.i5.217f3a81TnZPsM" class="selected"></path><path d="M686.1 737.5H329.8c-18.2 0-32.9-14.7-32.9-32.9s14.7-32.9 32.9-32.9h356.3c18.2 0 32.9 14.7 32.9 32.9s-14.8 32.9-32.9 32.9zM916.6 873.1H107.4c-18.2 0-32.9-14.7-32.9-32.9s14.7-32.9 32.9-32.9h809.3c18.2 0 32.9 14.7 32.9 32.9-0.1 18.2-14.8 32.9-33 32.9z" fill="#0e932e" p-id="8775" data-spm-anchor-id="a313x.search_index.0.i3.217f3a81TnZPsM" class="selected"></path></svg>